# xmcd
#
# Track frame offsets:
#	150
#	16447
#	35657
#	48787
#	64795
#	83065
#	98280
#	115705
#	139312
#	155405
#	168195
#	178430
#
# Disc length: 2571 seconds
# Revision: 0
# Processed by: cddbd v1.5.2PL0 Copyright (c) Steve Scherf et al.
# Submitted via: dBpowerAMP V12.0
#
DISCID=930a090c
DTITLE=Lloyd Jones - Love Gotcha
DYEAR=1999
DGENRE=Blues
TTITLE0=Nickles and Dimes
TTITLE1=I Declare
TTITLE2=Love Gotcha
TTITLE3=Treat Me Like the Dog I Am
TTITLE4=Ride and Roll
TTITLE5=Ain't Nothing a Girl Can Do
TTITLE6=Hurtin' House
TTITLE7=Old News
TTITLE8=Shake 'Em Up
TTITLE9=Fools Gold
TTITLE10=Big Ol' Shirt
TTITLE11=Highway Rider
EXTD=
EXTT0=
EXTT1=
EXTT2=
EXTT3=
EXTT4=
EXTT5=
EXTT6=
EXTT7=
EXTT8=
EXTT9=
EXTT10=
EXTT11=
PLAYORDER=
